<?xml version="1.0" encoding="utf-8"?>
<!-- Generator: Adobe Illustrator 22.0.0, SVG Export Plug-In . SVG Version: 6.00 Build 0)  -->
<svg version="1.1" id="Camada_1" xmlns="http://www.w3.org/2000/svg" xmlns:xlink="http://www.w3.org/1999/xlink" x="0px" y="0px"
	 viewBox="0 0 24 24" style="enable-background:new 0 0 24 24;" xml:space="preserve">
<style type="text/css">
	.st0{fill:#004C73;}
</style>
<path class="st0" d="M12,0C5.4,0,0,5.4,0,12s5.4,12,12,12s12-5.4,12-12S18.6,0,12,0z M14.2,18.6c-0.4,0.1-0.5-0.1-0.5-0.3v-1.9
	c0-0.7-0.2-1.1-0.5-1.3c1.6-0.2,3.2-0.8,3.2-3.5c0-0.8-0.3-1.4-0.7-1.9c0.1-0.2,0.3-0.9-0.1-1.9c0,0-0.6-0.2-1.9,0.7
	c-0.6-0.2-1.2-0.2-1.8-0.2c-0.6,0-1.2,0.1-1.8,0.2C8.9,7.7,8.3,7.9,8.3,7.9c-0.4,1-0.1,1.7-0.1,1.9c-0.4,0.5-0.7,1.1-0.7,1.9
	c0,2.7,1.6,3.3,3.2,3.5c-0.2,0.2-0.4,0.5-0.4,0.9c-0.4,0.2-1.4,0.5-2-0.6c0,0-0.4-0.7-1.1-0.7c0,0-0.7,0,0,0.4c0,0,0.5,0.2,0.8,1
	c0,0,0.4,1.2,2.4,0.8v1.3c0,0.2-0.1,0.4-0.5,0.3C7,17.7,5,15.1,5,12c0-3.9,3.1-7,7-7s7,3.1,7,7C19,15.1,17,17.7,14.2,18.6z"/>
</svg>
